<?xml version="1.0" standalone="no"?>
<!DOCTYPE svg PUBLIC "-//W3C//DTD SVG 20010904//EN"
 "http://www.w3.org/TR/2001/REC-SVG-20010904/DTD/svg10.dtd">
<svg version="1.0" xmlns="http://www.w3.org/2000/svg"
 width="629.000000pt" height="629.000000pt" viewBox="0 0 629.000000 629.000000"
 preserveAspectRatio="xMidYMid meet">
<metadata>
Created by potrace 1.14, written by Peter Selinger 2001-2017
</metadata>
<g transform="translate(0.000000,629.000000) scale(0.100000,-0.100000)"
fill="#000000" stroke="none">
<path d="M4055 6214 c-38 -20 -237 -77 -340 -98 -44 -9 -124 -31 -177 -48
l-97 -32 -87 22 c-48 12 -94 27 -103 35 -9 7 -56 30 -106 49 -71 29 -119 40
-228 53 -133 16 -241 18 -262 4 -5 -4 -55 -10 -110 -14 -69 -5 -115 -14 -150
-30 -62 -27 -195 -113 -195 -125 0 -5 -17 -18 -39 -29 -21 -11 -53 -33 -72
-48 -67 -56 -184 -123 -253 -143 -39 -12 -82 -25 -96 -30 l-25 -9 23 -7 c16
-4 21 -12 17 -24 -5 -15 4 -18 77 -22 86 -5 122 -19 291 -117 65 -38 76 -49
57 -62 -13 -8 -11 -12 8 -29 13 -11 43 -25 65 -32 23 -7 62 -25 86 -40 25 -15
51 -28 58 -28 16 0 17 -12 1 -28 -9 -9 -5 -12 20 -12 24 0 30 -4 26 -15 -5
-12 3 -15 42 -15 35 0 45 -3 34 -10 -13 -8 -12 -10 5 -11 90 -7 92 -8 65 -23
l-25 -14 40 -7 c63 -10 115 -36 139 -69 24 -32 56 -98 56 -113 0 -4 17 -33 37
-63 33 -49 38 -62 37 -115 -1 -88 -43 -168 -147 -276 -81 -85 -149 -163 -155
-180 -2 -4 -19 -18 -39 -30 -32 -20 -153 -171 -153 -190 0 -5 -11 -24 -24 -43
-13 -19 -36 -73 -51 -118 -14 -46 -32 -96 -40 -113 -56 -125 -97 -252 -119
-365 -10 -47 -32 -143 -51 -215 -18 -71 -36 -142 -39 -156 -8 -37 -85 -203
-181 -394 -152 -300 -171 -387 -152 -705 10 -169 4 -192 -95 -342 -41 -62 -92
-142 -113 -178 -21 -36 -53 -89 -72 -118 -80 -123 -148 -310 -129 -357 10 -28
25 -8 98 135 70 137 85 161 197 328 42 62 81 121 87 132 28 52 17 -37 -22
-170 -29 -101 -34 -125 -78 -366 -14 -78 -37 -184 -52 -235 -14 -52 -33 -130
-44 -174 -10 -44 -29 -125 -43 -180 -28 -112 -41 -237 -31 -291 6 -31 10 -35
30 -31 23 4 23 3 18 -52 -6 -59 6 -108 30 -117 8 -3 26 5 41 18 24 21 36 43
97 178 11 25 30 68 43 95 13 28 28 66 34 85 5 19 18 58 29 86 11 29 25 76 32
105 6 30 20 81 30 114 10 33 21 73 25 88 5 24 8 27 20 17 12 -10 23 -7 55 14
22 14 40 32 40 39 0 7 11 37 25 65 14 29 25 55 25 59 0 13 41 146 55 178 7 17
24 66 38 110 43 134 86 251 87 233 0 -10 -7 -59 -16 -108 -8 -50 -14 -103 -12
-118 l4 -27 12 29 c20 47 77 158 100 196 29 47 138 218 184 288 21 31 50 64
65 73 15 8 33 26 39 38 6 12 23 35 38 50 14 15 26 32 26 38 0 6 7 13 15 16 8
4 28 32 44 64 16 32 52 92 80 133 28 41 68 101 88 132 27 41 44 57 61 58 19 0
22 -5 22 -40 0 -22 3 -40 8 -40 4 0 25 14 46 32 22 18 47 33 58 33 10 1 28 11
39 23 25 28 33 28 57 -3 13 -16 26 -23 36 -19 23 9 151 165 187 229 31 56 51
65 58 29 2 -11 -8 -28 -26 -44 -25 -21 -31 -35 -36 -83 -4 -37 -1 -69 7 -88
11 -27 10 -36 -16 -87 -16 -31 -43 -76 -61 -98 -17 -23 -79 -117 -137 -208
-58 -92 -144 -226 -191 -299 -47 -72 -140 -220 -208 -327 -67 -107 -159 -251
-203 -320 -134 -207 -150 -236 -146 -267 2 -19 9 -28 22 -28 14 0 345 519
1312 2055 712 1130 1293 2062 1291 2070 -9 55 -42 9 -354 -487 -452 -717 -536
-849 -590 -927 -26 -39 -67 -102 -90 -140 -23 -39 -55 -89 -71 -111 -16 -22
-46 -68 -67 -102 -48 -80 -63 -93 -98 -86 -35 7 -45 28 -24 51 8 9 18 28 22
42 4 14 27 66 51 116 24 50 44 98 44 105 0 8 7 25 16 37 8 12 13 22 9 22 -3 0
6 22 20 50 14 27 25 56 25 64 0 7 7 27 15 42 8 16 15 37 15 47 0 10 5 27 11
38 26 50 40 139 43 291 1 87 -1 161 -6 164 -4 3 -7 8 -4 12 12 22 -36 242 -53
242 -4 0 -15 28 -26 61 -10 34 -30 76 -45 93 -14 17 -32 49 -38 72 -12 43 -30
66 -145 200 -38 43 -78 95 -89 114 -10 19 -39 67 -64 105 -25 39 -49 81 -55
95 -9 24 -55 121 -85 183 -8 16 -14 37 -14 47 0 10 -4 22 -10 25 -18 11 -10
49 18 91 15 23 38 60 52 83 14 24 48 70 75 103 28 34 68 86 90 116 47 65 144
162 161 162 7 0 33 15 57 34 44 34 104 69 109 64 4 -3 126 79 161 109 23 19
25 23 10 23 -10 0 -31 -7 -48 -16z"/>
</g>
</svg>
